<?xml version="1.0" encoding="iso-8859-1"?>
<!-- Generator: Adobe Illustrator 19.0.0, SVG Export Plug-In . SVG Version: 6.00 Build 0)  -->
<svg version="1.1" id="Layer_1" xmlns="http://www.w3.org/2000/svg" xmlns:xlink="http://www.w3.org/1999/xlink" x="0px" y="0px"
	 viewBox="0 0 463.3 463.3" style="enable-background:new 0 0 463.3 463.3;" xml:space="preserve">
<g>
	<path style="fill:#CCCCCC;" d="M446.1,80.31H26.5c-9.5,0-17.2,7.7-17.2,17.2v26.15v254.13c0,9.5,7.7,17.2,17.2,17.2h419.6
		c9.5,0,17.2-7.7,17.2-17.2V123.66v-26.15C463.299,88.01,455.6,80.31,446.1,80.31z"/>
	<path style="fill:#F2F2F2;" d="M454,111.661v254.13c0,9.5-7.7,17.2-17.2,17.2H17.2c-9.5,0-17.2-7.7-17.2-17.2v-254.13H454z"/>
	<path style="fill:#88C5FC;" d="M454,85.511v26.15H0v-26.15c0-9.5,7.7-17.2,17.2-17.2h419.6C446.3,68.311,454,76.011,454,85.511z"/>
	<path style="fill:#F2F2F2;" d="M259.997,97.486h-188c-4.142,0-7.5-3.358-7.5-7.5s3.358-7.5,7.5-7.5h188c4.142,0,7.5,3.358,7.5,7.5
		S264.139,97.486,259.997,97.486z"/>
	<path style="fill:#4D4D4D;" d="M47,97.481c-1.98,0-3.91-0.8-5.31-2.19c-1.39-1.4-2.19-3.33-2.19-5.31c0-1.97,0.8-3.9,2.19-5.3
		c1.4-1.39,3.33-2.19,5.31-2.19c1.97,0,3.9,0.8,5.3,2.19c1.4,1.4,2.2,3.33,2.2,5.3c0,1.98-0.8,3.91-2.2,5.31
		C50.9,96.681,48.97,97.481,47,97.481z"/>
	<path style="fill:#F9A18A;" d="M23,97.481c-1.98,0-3.91-0.8-5.31-2.19c-1.39-1.4-2.19-3.33-2.19-5.31c0-1.97,0.8-3.9,2.19-5.3
		c1.4-1.39,3.33-2.19,5.31-2.19c1.97,0,3.9,0.8,5.3,2.19c1.4,1.4,2.2,3.33,2.2,5.3c0,1.98-0.8,3.91-2.2,5.31
		C26.9,96.681,24.97,97.481,23,97.481z"/>
	<polygon style="fill:#F9DD53;" points="378.321,326.529 242.426,250.089 378.323,173.504 383.256,182.271 406.692,148.936 
		366.033,151.654 370.97,160.43 227.135,241.488 83.026,160.426 87.961,151.654 47.302,148.936 70.738,182.271 75.672,173.499 
		211.852,250.101 75.807,326.768 70.738,317.757 47.302,351.093 87.961,348.375 83.161,339.841 227.142,258.701 370.968,339.602 
		366.033,348.375 406.692,351.093 383.256,317.757 	"/>
	<g>
		<path style="opacity:0.23;fill:#F2F2F2;enable-background:new    ;" d="M454,85.511v280.28c0,9.5-7.7,17.2-17.2,17.2H194.887
			l163.75-314.68H436.8C446.3,68.311,454,76.011,454,85.511z"/>
		<path style="opacity:0.23;fill:#F2F2F2;enable-background:new    ;" d="M119.68,68.311l-22.56,43.35L85.29,134.4l-25.96,49.88
			l-12.39,23.82l-23.94,46L0,298.3V85.511c0-9.5,7.7-17.2,17.2-17.2H119.68z"/>
	</g>
</g>
<g>
</g>
<g>
</g>
<g>
</g>
<g>
</g>
<g>
</g>
<g>
</g>
<g>
</g>
<g>
</g>
<g>
</g>
<g>
</g>
<g>
</g>
<g>
</g>
<g>
</g>
<g>
</g>
<g>
</g>
</svg>
