<?xml version="1.0" encoding="iso-8859-1"?>
<!-- Generator: Adobe Illustrator 19.0.0, SVG Export Plug-In . SVG Version: 6.00 Build 0)  -->
<svg version="1.1" id="Layer_1" xmlns="http://www.w3.org/2000/svg" xmlns:xlink="http://www.w3.org/1999/xlink" x="0px" y="0px"
	 viewBox="0 0 420.189 420.189" style="enable-background:new 0 0 420.189 420.189;" xml:space="preserve">
<g>
	<g>
		<rect x="36.039" y="12" style="fill:#F2F2F2;" width="360.11" height="41.17"/>
		<rect x="170.539" y="327.179" style="fill:#F2F2F2;" width="91.11" height="93.01"/>
		<rect x="36.039" y="85.279" style="fill:#F2F2F2;" width="91.12" height="65.89"/>
		<rect x="305.039" y="85.279" style="fill:#F2F2F2;" width="91.11" height="83.89"/>
		<rect x="305.039" y="204.159" style="fill:#F2F2F2;" width="91.11" height="216.03"/>
		<rect x="170.539" y="85.279" style="fill:#F2F2F2;" width="91.11" height="206.9"/>
		<rect x="36.039" y="186.159" style="fill:#F2F2F2;" width="91.12" height="234.03"/>
	</g>
	<rect x="24.04" style="fill:#F7E88B;" width="360.11" height="41.17"/>
	<rect x="158.54" y="315.18" style="fill:#F9A18A;" width="91.11" height="93.01"/>
	<rect x="24.04" y="73.28" style="fill:#F9A18A;" width="91.12" height="65.89"/>
	<rect x="293.04" y="73.28" style="fill:#F9A18A;" width="91.11" height="83.89"/>
	<rect x="293.04" y="192.16" style="fill:#88C5FC;" width="91.11" height="216.03"/>
	<rect x="158.54" y="73.28" style="fill:#88C5FC;" width="91.11" height="206.9"/>
	<rect x="24.04" y="174.16" style="fill:#88C5FC;" width="91.12" height="234.03"/>
	<g>
		<polygon style="fill:#DB7D6A;" points="69.6,96.97 36.84,73.28 24.04,73.28 24.04,82.53 56.8,106.22 24.04,129.91 24.04,139.17 
			36.84,139.17 69.6,115.48 102.36,139.17 115.16,139.17 115.16,129.91 82.4,106.22 115.16,82.53 115.16,73.28 102.36,73.28 		"/>
		<polygon style="fill:#DB7D6A;" points="204.1,350.96 169.04,315.18 158.54,315.18 158.54,325.9 193.6,361.68 158.54,397.46 
			158.54,408.19 169.03,408.19 204.1,372.4 239.16,408.19 249.65,408.19 249.65,397.46 214.6,361.68 249.65,325.9 249.65,315.18 
			239.15,315.18 		"/>
		<polygon style="fill:#DB7D6A;" points="384.15,73.28 373.08,73.28 338.59,105.03 304.11,73.28 293.04,73.28 293.04,83.48 
			327.52,115.22 293.04,146.97 293.04,157.17 304.11,157.17 338.59,125.42 373.08,157.17 384.15,157.17 384.15,146.97 
			349.67,115.22 384.15,83.48 		"/>
	</g>
	<polygon style="opacity:0.23;fill:#F2F2F2;enable-background:new    ;" points="117.12,0 116.79,0.63 104.96,23.37 95.7,41.17 
		24.04,41.17 24.04,0 	"/>
	<polygon style="opacity:0.23;fill:#F2F2F2;enable-background:new    ;" points="384.15,0 384.15,41.17 257.96,41.17 279.38,0 	"/>
	<g>
		<polygon style="opacity:0.23;fill:#F2F2F2;enable-background:new    ;" points="331.51,192.16 331.27,192.62 319.44,215.36 
			293.48,265.24 293.04,266.09 293.04,192.16 		"/>
		<polygon style="opacity:0.23;fill:#F2F2F2;enable-background:new    ;" points="384.15,261.53 384.15,408.19 307.83,408.19 		"/>
	</g>
	<g>
		<polygon style="opacity:0.23;fill:#F2F2F2;enable-background:new    ;" points="192.26,73.28 184.94,87.35 158.98,137.23 
			158.54,138.08 158.54,73.28 		"/>
		<polygon style="opacity:0.23;fill:#F2F2F2;enable-background:new    ;" points="249.65,133.52 249.65,280.18 173.33,280.18 		"/>
	</g>
	<g>
		<polygon style="opacity:0.23;fill:#F2F2F2;enable-background:new    ;" points="62.45,174.16 52.46,193.36 26.5,243.24 
			24.04,247.97 24.04,174.16 		"/>
		<polygon style="opacity:0.23;fill:#F2F2F2;enable-background:new    ;" points="115.16,243.4 115.16,408.19 29.41,408.19 		"/>
	</g>
	<g>
		<polygon style="opacity:0.23;fill:#F2F2F2;enable-background:new    ;" points="189.66,315.18 186.6,321.06 162.66,367.06 
			158.54,374.98 158.54,315.18 		"/>
		<polygon style="opacity:0.23;fill:#F2F2F2;enable-background:new    ;" points="249.65,315.65 249.65,408.19 201.5,408.19 		"/>
	</g>
	<g>
		<polygon style="opacity:0.23;fill:#F2F2F2;enable-background:new    ;" points="319.41,73.28 297.16,116.04 293.04,123.96 
			293.04,73.28 		"/>
		<polygon style="opacity:0.23;fill:#F2F2F2;enable-background:new    ;" points="384.15,73.28 384.15,157.17 336,157.17 
			379.65,73.28 		"/>
	</g>
	<g>
		<polygon style="opacity:0.23;fill:#F2F2F2;enable-background:new    ;" points="41.05,73.28 28.17,98.04 24.05,105.96 
			24.05,73.28 		"/>
		<polygon style="opacity:0.23;fill:#F2F2F2;enable-background:new    ;" points="115.16,73.28 115.16,139.17 67.01,139.17 
			101.29,73.28 		"/>
	</g>
</g>
<g>
</g>
<g>
</g>
<g>
</g>
<g>
</g>
<g>
</g>
<g>
</g>
<g>
</g>
<g>
</g>
<g>
</g>
<g>
</g>
<g>
</g>
<g>
</g>
<g>
</g>
<g>
</g>
<g>
</g>
</svg>
