<?xml version="1.0" encoding="iso-8859-1"?>
<!-- Generator: Adobe Illustrator 19.0.0, SVG Export Plug-In . SVG Version: 6.00 Build 0)  -->
<svg version="1.1" id="Layer_1" xmlns="http://www.w3.org/2000/svg" xmlns:xlink="http://www.w3.org/1999/xlink" x="0px" y="0px"
	 viewBox="0 0 463.3 463.3" style="enable-background:new 0 0 463.3 463.3;" xml:space="preserve">
<g>
	<path style="fill:#CCCCCC;" d="M446.1,80.31H26.5c-9.5,0-17.2,7.7-17.2,17.2v26.15v254.13c0,9.5,7.7,17.2,17.2,17.2h419.6
		c9.5,0,17.2-7.7,17.2-17.2V123.66v-26.15C463.299,88.01,455.6,80.31,446.1,80.31z"/>
	<g id="XMLID_2_">
		<g>
			<path style="fill:#88C5FC;" d="M345,234.061c7.44,0,13.46,6.03,13.46,13.46c0,3.72-1.5,7.08-3.94,9.52
				c-2.44,2.43-5.8,3.94-9.52,3.94H174.01c-7.43,0-13.46-6.03-13.46-13.46c0-3.72,1.51-7.08,3.94-9.52
				c2.44-2.43,5.81-3.94,9.52-3.94H345z"/>
			<path style="fill:#88C5FC;" d="M454,85.511v26.15H0v-26.15c0-9.5,7.7-17.2,17.2-17.2h419.6C446.3,68.311,454,76.011,454,85.511z"
				/>
			<path style="fill:#F2F2F2;" d="M454,111.661v254.13c0,9.5-7.7,17.2-17.2,17.2H17.2c-9.5,0-17.2-7.7-17.2-17.2v-254.13H454z
				 M358.46,247.521c0-7.43-6.02-13.46-13.46-13.46H174.01c-3.71,0-7.08,1.51-9.52,3.94c-2.43,2.44-3.94,5.8-3.94,9.52
				c0,7.43,6.03,13.46,13.46,13.46H345c3.72,0,7.08-1.51,9.52-3.94C356.96,254.601,358.46,251.241,358.46,247.521z"/>
		</g>
	</g>
	<path style="fill:#4D4D4D;" d="M143.197,279.502c-1.919,0-3.839-0.732-5.303-2.197l-19.092-19.092
		c-2.929-2.929-2.929-7.678,0-10.607s7.678-2.929,10.606,0l19.092,19.092c2.929,2.929,2.929,7.678,0,10.607
		C147.036,278.77,145.116,279.502,143.197,279.502z"/>
	<path style="fill:#F2F2F2;" d="M259.997,97.486h-188c-4.142,0-7.5-3.358-7.5-7.5s3.358-7.5,7.5-7.5h188c4.142,0,7.5,3.358,7.5,7.5
		S264.139,97.486,259.997,97.486z"/>
	<path style="fill:#4D4D4D;" d="M47,97.481c-1.98,0-3.91-0.8-5.31-2.19c-1.39-1.4-2.19-3.33-2.19-5.31c0-1.97,0.8-3.9,2.19-5.3
		c1.4-1.39,3.33-2.19,5.31-2.19c1.97,0,3.9,0.8,5.3,2.19c1.4,1.4,2.2,3.33,2.2,5.3c0,1.98-0.8,3.91-2.2,5.31
		C50.9,96.681,48.97,97.481,47,97.481z"/>
	<path style="fill:#F9A18A;" d="M23,97.481c-1.98,0-3.91-0.8-5.31-2.19c-1.39-1.4-2.19-3.33-2.19-5.31c0-1.97,0.8-3.9,2.19-5.3
		c1.4-1.39,3.33-2.19,5.31-2.19c1.97,0,3.9,0.8,5.3,2.19c1.4,1.4,2.2,3.33,2.2,5.3c0,1.98-0.8,3.91-2.2,5.31
		C26.9,96.681,24.97,97.481,23,97.481z"/>
	<path style="fill:#B3B3B3;" d="M111.73,265.524c-6.403,0-12.804-2.436-17.678-7.311c-9.747-9.748-9.747-25.608,0-35.355
		c4.722-4.722,11-7.323,17.678-7.323s12.956,2.601,17.677,7.323l0,0l0,0c4.722,4.722,7.323,11,7.323,17.677
		c0,6.678-2.601,12.956-7.323,17.678C124.535,263.086,118.131,265.523,111.73,265.524z M111.73,230.536
		c-2.671,0-5.183,1.04-7.071,2.929c-3.899,3.899-3.899,10.243,0,14.142s10.244,3.899,14.142,0c1.889-1.889,2.929-4.4,2.929-7.071
		s-1.041-5.182-2.929-7.071l0,0C116.913,231.576,114.401,230.536,111.73,230.536z"/>
	<g>
		<path style="opacity:0.23;fill:#F2F2F2;enable-background:new    ;" d="M454,85.511v280.28c0,9.5-7.7,17.2-17.2,17.2H194.887
			l163.75-314.68H436.8C446.3,68.311,454,76.011,454,85.511z"/>
		<path style="opacity:0.23;fill:#F2F2F2;enable-background:new    ;" d="M119.68,68.311l-22.56,43.35L85.29,134.4l-25.96,49.88
			l-12.39,23.82l-23.94,46l-23,44.2V85.511c0-9.5,7.7-17.2,17.2-17.2H119.68z"/>
	</g>
</g>
<g>
</g>
<g>
</g>
<g>
</g>
<g>
</g>
<g>
</g>
<g>
</g>
<g>
</g>
<g>
</g>
<g>
</g>
<g>
</g>
<g>
</g>
<g>
</g>
<g>
</g>
<g>
</g>
<g>
</g>
</svg>
