<?xml version="1.0" encoding="iso-8859-1"?>
<!-- Generator: Adobe Illustrator 19.0.0, SVG Export Plug-In . SVG Version: 6.00 Build 0)  -->
<svg version="1.1" id="Layer_1" xmlns="http://www.w3.org/2000/svg" xmlns:xlink="http://www.w3.org/1999/xlink" x="0px" y="0px"
	 viewBox="0 0 403.57 403.57" style="enable-background:new 0 0 403.57 403.57;" xml:space="preserve">
<g>
	<rect x="118.79" y="273.19" style="fill:#F9A18A;" width="166" height="130"/>
	<path style="fill:#AFDAF9;" d="M234.79,170.74v71.14h-66v-71.14c0-18.19,14.81-33,33-33C219.99,137.74,234.79,152.55,234.79,170.74
		z"/>
	<path style="fill:#AFDAF9;" d="M403.57,174.67c0,37.11-30.09,67.21-67.2,67.21h-67.58v-71.14c0-36.94-30.05-67-67-67
		c-36.94,0-67,30.06-67,67v71.14H67.21C30.1,241.88,0,211.78,0,174.67c0-3.58,0.28-7.09,0.82-10.52
		c4.6-29.25,28.09-52.22,57.59-56.08c2.47-42.33,37.57-75.9,80.52-75.9c13.84,0,26.87,3.49,38.25,9.63
		c14.45-24.77,41.3-41.42,72.04-41.42c46.03,0,83.35,37.31,83.35,83.34c0,8.41-1.25,16.52-3.56,24.17c2.41-0.27,4.87-0.43,7.36-0.43
		c33.53,0,61.33,24.56,66.38,56.68C403.29,167.57,403.57,171.09,403.57,174.67z"/>
	<path style="fill:#666666;" d="M268.79,241.88v31.31h-34v-31.31v-71.14c0-18.19-14.8-33-33-33c-18.19,0-33,14.81-33,33v71.14v31.31
		h-34v-31.31v-71.14c0-36.94,30.06-67,67-67c36.95,0,67,30.06,67,67V241.88z"/>
	<path style="fill:#808080;" d="M243.79,273.05V170.74c0-23.159-18.841-42-42-42s-42,18.841-42,42v102.31h-16V170.74
		c0-31.981,26.019-58,58-58s58,26.019,58,58v102.31H243.79z"/>
	<g style="opacity:0.23;">
		<path style="fill:#808080;" d="M63.56,204.42h71.23v37.46H67.21C30.1,241.88,0,211.78,0,174.67c0-3.58,0.28-7.09,0.82-10.52
			C11.72,187.91,35.71,204.42,63.56,204.42z"/>
		<rect x="168.79" y="204.42" style="fill:#808080;" width="66" height="37.46"/>
		<path style="fill:#808080;" d="M403.57,174.67c0,37.11-30.09,67.21-67.2,67.21h-67.58v-37.46h71.22
			c27.86,0,51.85-16.51,62.74-40.28C403.29,167.57,403.57,171.09,403.57,174.67z"/>
	</g>
	<polygon style="opacity:0.23;fill:#F2F2F2;enable-background:new    ;" points="284.79,273.19 284.79,403.19 209.16,403.19 
		276.81,273.19 	"/>
	<polygon style="opacity:0.23;fill:#F2F2F2;enable-background:new    ;" points="163.17,273.19 118.79,358.47 118.79,273.19 	"/>
</g>
<g>
</g>
<g>
</g>
<g>
</g>
<g>
</g>
<g>
</g>
<g>
</g>
<g>
</g>
<g>
</g>
<g>
</g>
<g>
</g>
<g>
</g>
<g>
</g>
<g>
</g>
<g>
</g>
<g>
</g>
</svg>
