<?xml version="1.0" encoding="iso-8859-1"?>
<!-- Generator: Adobe Illustrator 19.0.0, SVG Export Plug-In . SVG Version: 6.00 Build 0)  -->
<svg version="1.1" id="Layer_1" xmlns="http://www.w3.org/2000/svg" xmlns:xlink="http://www.w3.org/1999/xlink" x="0px" y="0px"
	 viewBox="0 0 454 454" style="enable-background:new 0 0 454 454;" xml:space="preserve">
<g>
	<polygon style="fill:#666666;" points="269.53,412.088 184.47,412.088 195.15,364.088 198.49,349.088 255.5,349.088 
		258.84,364.088 	"/>
	<path style="fill:#B3B3B3;" d="M454,51.608v280.28c0,9.5-7.7,17.2-17.2,17.2H255.5h-57.01H17.2c-9.5,0-17.2-7.7-17.2-17.2V51.608
		c0-9.5,7.7-17.2,17.2-17.2h419.6C446.3,34.408,454,42.108,454,51.608z M431,326.088V91.058v-33.65H23v33.65v235.03H431z"/>
	<path style="fill:#4D4D4D;" d="M255.5,349.088h-57.01l-3.34,15h63.69L255.5,349.088z"/>
	<rect x="23" y="57.408" style="fill:#88C5FC;" width="408" height="33.65"/>
	<rect x="23" y="91.058" style="fill:#E6E6E6;" width="408" height="235.03"/>
	<path style="opacity:0.23;fill:#999999;enable-background:new    ;" d="M283.012,249.595l-33.859-33.859
		c5.145-7.359,7.732-15.982,7.732-24.606c0-11-4.19-22.01-12.56-30.38c-0.34-0.34-0.69-0.68-1.05-1.01
		c-7.99-7.48-18.35-11.57-29.33-11.57c-11.48,0-22.27,4.46-30.39,12.58c-8.11,8.11-12.58,18.9-12.58,30.38s4.47,22.27,12.58,30.38
		c5.98,5.98,13.42,9.98,21.51,11.67c2.89,0.6,5.86,0.91,8.88,0.91c8.929,0,17.44-2.714,24.606-7.743l33.854,33.854
		c1.464,1.465,3.384,2.197,5.303,2.197s3.839-0.732,5.303-2.197C285.941,257.272,285.941,252.524,283.012,249.595z M212.426,219.05
		c-6.9-0.37-13.34-3.22-18.26-8.15c-5.28-5.28-8.19-12.3-8.19-19.77s2.91-14.49,8.19-19.77c5.28-5.29,12.31-8.19,19.78-8.19
		c3.73,0,7.35,0.73,10.7,2.11c3.35,1.39,6.43,3.44,9.07,6.08c0.8,0.8,1.54,1.63,2.22,2.5c8.62,10.96,7.88,26.94-2.22,37.04
		c-5.28,5.29-12.31,8.19-19.77,8.19C213.436,219.09,212.926,219.08,212.426,219.05z"/>
	<path style="fill:#4D4D4D;" d="M276.613,253.076c-1.919,0-3.839-0.732-5.303-2.197l-38.69-38.691
		c-2.929-2.929-2.929-7.678,0-10.606c2.929-2.929,7.678-2.929,10.606,0l38.69,38.691c2.929,2.929,2.929,7.678,0,10.606
		C280.452,252.343,278.532,253.076,276.613,253.076z"/>
	<rect x="145.603" y="404.592" style="fill:#B3B3B3;" width="162.788" height="15"/>
	<path style="fill:#B3B3B3;" d="M243.23,151.428c-0.34-0.34-0.69-0.68-1.05-1.01c-7.99-7.48-18.35-11.57-29.33-11.57
		c-11.48,0-22.27,4.46-30.39,12.58c-8.11,8.11-12.58,18.9-12.58,30.38s4.47,22.27,12.58,30.38c5.98,5.98,13.42,9.98,21.51,11.67
		c2.89,0.6,5.86,0.91,8.88,0.91c11.47,0,22.26-4.46,30.38-12.58c8.37-8.37,12.56-19.38,12.56-30.38S251.6,159.798,243.23,151.428z
		 M232.62,201.578c-5.28,5.29-12.31,8.19-19.77,8.19c-0.51,0-1.02-0.01-1.52-0.04c-6.9-0.37-13.34-3.22-18.26-8.15
		c-5.28-5.28-8.19-12.3-8.19-19.77s2.91-14.49,8.19-19.77c5.28-5.29,12.31-8.19,19.78-8.19c3.73,0,7.35,0.73,10.7,2.11
		c3.35,1.39,6.43,3.44,9.07,6.08c0.8,0.8,1.54,1.63,2.22,2.5C243.46,175.498,242.72,191.478,232.62,201.578z"/>
	<path style="fill:#88C5FC;" d="M232.62,201.578c-5.28,5.29-12.31,8.19-19.77,8.19c-7.15,0-13.89-2.65-19.08-7.52
		c-0.24-0.22-0.47-0.44-0.7-0.67c-5.28-5.28-8.19-12.3-8.19-19.77s2.91-14.49,8.19-19.77c5.28-5.29,12.31-8.19,19.78-8.19
		c1.97,0,3.91,0.2,5.79,0.61c1.69,0.34,3.33,0.85,4.91,1.5c3.35,1.39,6.43,3.44,9.07,6.08
		C243.52,172.938,243.52,190.678,232.62,201.578z"/>
	<path style="opacity:0.23;fill:#F2F2F2;enable-background:new    ;" d="M454,51.608v280.28c0,9.5-7.7,17.2-17.2,17.2H194.887
		l163.75-314.68H436.8C446.3,34.408,454,42.108,454,51.608z"/>
	<path style="opacity:0.23;fill:#F2F2F2;enable-background:new    ;" d="M119.68,34.408l-22.56,43.35l-11.83,22.74l-25.96,49.88
		l-12.39,23.82l-23.94,46l-23,44.2V51.608c0-9.5,7.7-17.2,17.2-17.2H119.68z"/>
	<path style="opacity:0.23;fill:#F2F2F2;enable-background:new    ;" d="M255.79,181.808c0,11-4.19,22.01-12.56,30.38
		c-8.12,8.12-18.91,12.58-30.38,12.58c-3.02,0-5.99-0.31-8.88-0.91l7.36-14.13c0.5,0.03,1.01,0.04,1.52,0.04
		c7.46,0,14.49-2.9,19.77-8.19c10.1-10.1,10.84-26.08,2.22-37.04l7.34-14.12c0.36,0.33,0.71,0.67,1.05,1.01
		C251.6,159.798,255.79,170.808,255.79,181.808z"/>
	<path style="opacity:0.23;fill:#F2F2F2;enable-background:new    ;" d="M218.64,154.458l-0.02,0.04l-24.85,47.75
		c-0.24-0.22-0.47-0.44-0.7-0.67c-5.28-5.28-8.19-12.3-8.19-19.77s2.91-14.49,8.19-19.77c5.28-5.29,12.31-8.19,19.78-8.19
		C214.82,153.848,216.76,154.048,218.64,154.458z"/>
</g>
<g>
</g>
<g>
</g>
<g>
</g>
<g>
</g>
<g>
</g>
<g>
</g>
<g>
</g>
<g>
</g>
<g>
</g>
<g>
</g>
<g>
</g>
<g>
</g>
<g>
</g>
<g>
</g>
<g>
</g>
</svg>
