<?xml version="1.0" encoding="iso-8859-1"?>
<!-- Generator: Adobe Illustrator 19.0.0, SVG Export Plug-In . SVG Version: 6.00 Build 0)  -->
<svg version="1.1" id="Layer_1" xmlns="http://www.w3.org/2000/svg" xmlns:xlink="http://www.w3.org/1999/xlink" x="0px" y="0px"
	 viewBox="0 0 453.35 453.35" style="enable-background:new 0 0 453.35 453.35;" xml:space="preserve">
<g>
	<path style="fill:#CCCCCC;" d="M426.2,161.825v227.74H27.16v-227.74c0-10.1,8.18-18.28,18.28-18.28h200.83v23H50.16v200.02h36.11
		h99.37h178.68h38.88v-200.02h-24.93v-23h29.65C418.01,143.545,426.2,151.725,426.2,161.825z"/>
	<path style="fill:#B3B3B3;" d="M426.2,389.565h27.15c0,20.71-16.79,37.5-37.5,37.5H37.5c-10.36,0-19.73-4.2-26.52-10.98
		C4.2,409.295,0,399.925,0,389.565h27.16H426.2z"/>
	<path style="fill:#F9DD53;" d="M174.42,204.915c11.4,0,20.65,9.25,20.65,20.65c0,11.41-9.25,20.65-20.65,20.65
		c-11.41,0-20.65-9.24-20.65-20.65C153.77,214.165,163.01,204.915,174.42,204.915z"/>
	<polygon style="fill:#DDCA6C;" points="280.85,163.005 310.66,199.025 298.77,213.395 246.27,213.395 246.27,204.815 	"/>
	<polygon style="fill:#DDCA6C;" points="155.77,282.555 205.46,342.605 185.64,366.565 86.27,366.565 	"/>
	<polygon style="fill:#F7E88B;" points="274.98,258.595 364.32,366.565 185.64,366.565 205.46,342.605 	"/>
	<polygon style="fill:#F7E88B;" points="378.27,179.955 378.27,213.395 298.77,213.395 310.66,199.025 352.35,148.635 	"/>
	<path style="fill:#AFDAF9;" d="M403.2,166.545v200.02h-38.88l-89.34-107.97l-69.52,84.01l-49.69-60.05l-69.5,84.01H50.16v-200.02
		h196.11v38.27v8.58c0,12.64,10.25,22.89,22.89,22.89h86.22c12.64,0,22.89-10.25,22.89-22.89v-33.44v-13.41L403.2,166.545
		L403.2,166.545z M195.07,225.565c0-11.4-9.25-20.65-20.65-20.65c-11.41,0-20.65,9.25-20.65,20.65c0,11.41,9.24,20.65,20.65,20.65
		C185.82,246.215,195.07,236.975,195.07,225.565z"/>
	<g>
		<path style="opacity:0.23;fill:#F2F2F2;enable-background:new    ;" d="M426.2,161.825v227.74H238.38l11.97-23l104.09-200.02
			l11.97-23h41.51C418.02,143.545,426.2,151.725,426.2,161.825z"/>
		<path style="opacity:0.23;fill:#F2F2F2;enable-background:new    ;" d="M126.68,143.545l-99.52,192.72v-174.44
			c0-10.1,8.19-18.28,18.28-18.28L126.68,143.545L126.68,143.545z"/>
	</g>
	<g>
		<path style="opacity:0.23;fill:#F2F2F2;enable-background:new    ;" d="M453.35,389.565c0,11.27-4.98,21.39-12.85,28.26H318.92
			l14.7-28.26H453.35z"/>
	</g>
	<path style="opacity:0.23;fill:#808080;enable-background:new    ;" d="M364.379,39.784h-86.22c-12.64,0-22.89,10.25-22.89,22.89
		v164.22c0,12.64,10.25,22.89,22.89,22.89h86.22c12.64,0,22.89-10.25,22.89-22.89V62.674
		C387.27,50.034,377.02,39.784,364.379,39.784z"/>
	<path style="fill:#4D4D4D;" d="M378.27,213.395c0,12.64-10.25,22.89-22.89,22.89h-86.22c-12.64,0-22.89-10.25-22.89-22.89H378.27z"
		/>
	<path style="fill:#4D4D4D;" d="M378.27,49.175h-132c0-12.64,10.25-22.89,22.89-22.89h86.22
		C368.02,26.285,378.27,36.535,378.27,49.175z"/>
	<path style="fill:#F9DD53;" d="M292.04,116.435c6.84,0,12.38,5.55,12.38,12.39s-5.54,12.38-12.38,12.38s-12.39-5.54-12.39-12.38
		C279.65,121.985,285.2,116.435,292.04,116.435z"/>
	<path style="fill:#AFDAF9;" d="M378.27,166.545v13.41l-25.92-31.32l-41.69,50.39l-29.81-36.02l-34.58,41.81v-38.27v-23v-94.37h132
		v94.37L378.27,166.545L378.27,166.545z M304.42,128.825c0-6.84-5.54-12.39-12.38-12.39s-12.39,5.55-12.39,12.39
		s5.55,12.38,12.39,12.38S304.42,135.665,304.42,128.825z"/>
	<rect x="246.27" y="49.175" style="fill:#4D4D4D;" width="5.41" height="164.22"/>
	<rect x="372.86" y="49.175" style="fill:#4D4D4D;" width="5.41" height="164.22"/>
	<g>
		<path style="opacity:0.23;fill:#F2F2F2;enable-background:new    ;" d="M378.27,53.445v159.95c0,12.64-10.25,22.89-22.89,22.89
			h-72.26l3.23-6.21l8.68-16.68l77.83-149.56L378.27,53.445z"/>
		<path style="opacity:0.23;fill:#F2F2F2;enable-background:new    ;" d="M309.61,26.285l-11.82,22.89l-46.11,89.3l-5.41,10.47
			v-99.77c0-12.64,10.25-22.89,22.89-22.89L309.61,26.285L309.61,26.285z"/>
	</g>
</g>
<g>
</g>
<g>
</g>
<g>
</g>
<g>
</g>
<g>
</g>
<g>
</g>
<g>
</g>
<g>
</g>
<g>
</g>
<g>
</g>
<g>
</g>
<g>
</g>
<g>
</g>
<g>
</g>
<g>
</g>
</svg>
