<?xml version="1.0" encoding="iso-8859-1"?>
<!-- Generator: Adobe Illustrator 19.0.0, SVG Export Plug-In . SVG Version: 6.00 Build 0)  -->
<svg version="1.1" id="Layer_1" xmlns="http://www.w3.org/2000/svg" xmlns:xlink="http://www.w3.org/1999/xlink" x="0px" y="0px"
	 viewBox="0 0 454.003 454.003" style="enable-background:new 0 0 454.003 454.003;" xml:space="preserve">
<g>
	<polygon style="fill:#666666;" points="269.533,412.091 184.473,412.091 195.153,364.091 198.493,349.091 255.503,349.091 
		258.843,364.091 	"/>
	<path style="fill:#B3B3B3;" d="M454.003,51.611v280.28c0,9.5-7.7,17.2-17.2,17.2h-181.3h-57.01H17.203c-9.5,0-17.2-7.7-17.2-17.2
		V51.611c0-9.5,7.7-17.2,17.2-17.2h419.6C446.303,34.411,454.003,42.111,454.003,51.611z M431.003,326.091V91.061v-33.65h-408v33.65
		v235.03H431.003z"/>
	<path style="fill:#4D4D4D;" d="M255.503,349.091h-57.01l-3.34,15h63.69L255.503,349.091z"/>
	<rect x="23.003" y="57.411" style="fill:#88C5FC;" width="408" height="33.65"/>
	<rect x="23.003" y="91.061" style="fill:#F2F2F2;" width="408" height="235.03"/>
	<rect x="145.606" y="404.595" style="fill:#B3B3B3;" width="162.788" height="15"/>
	<path style="opacity:0.23;fill:#F2F2F2;enable-background:new    ;" d="M454.003,51.611v280.28c0,9.5-7.7,17.2-17.2,17.2H194.89
		l163.75-314.68h78.163C446.303,34.411,454.003,42.111,454.003,51.611z"/>
	<path style="opacity:0.23;fill:#F2F2F2;enable-background:new    ;" d="M119.68,34.408l-22.56,43.35l-11.83,22.74l-25.96,49.88
		l-12.39,23.82l-23.94,46l-23,44.2V51.608c0-9.5,7.7-17.2,17.2-17.2H119.68z"/>
	<path style="fill:#AFDAF9;" d="M316.673,206.041c0,1.34-0.03,2.68-0.1,4c-0.81,18.67-7.31,35.87-17.83,49.9
		c-1.59,2.14-3.29,4.21-5.08,6.2c-12.09,13.48-28.2,23.29-46.45,27.54c-6.39,1.5-13.04,2.31-19.88,2.36h0.67
		c-0.22,0.01-0.44,0.01-0.67,0.01h-0.67c-0.22,0-0.45,0-0.67-0.01h0.67c-6.83-0.05-13.48-0.86-19.87-2.36
		c-18.25-4.25-34.36-14.05-46.46-27.53c-1.78-1.99-3.48-4.06-5.08-6.21c-10.51-14.03-17.02-31.23-17.82-49.9
		c-0.07-1.32-0.1-2.66-0.1-4s0.03-2.68,0.1-4c0.8-18.67,7.31-35.87,17.82-49.9c1.6-2.15,3.3-4.22,5.08-6.21
		c12.1-13.48,28.21-23.28,46.46-27.53c6.39-1.5,13.04-2.31,19.87-2.36h-0.67c0.22-0.01,0.45-0.01,0.67-0.01c0.12,0,0.23,0,0.34,0.01
		c0.11-0.01,0.22-0.01,0.33-0.01c0.23,0,0.45,0,0.67,0.01h-0.67c6.84,0.05,13.49,0.86,19.88,2.36
		c18.25,4.25,34.36,14.06,46.45,27.54l5.08,6.2c10.52,14.03,17.02,31.23,17.83,49.9
		C316.643,203.361,316.673,204.701,316.673,206.041z"/>
	<path style="fill:#97C9E8;" d="M316.573,210.041c0.07-1.32,0.1-2.66,0.1-4s-0.03-2.68-0.1-4h-33.97
		c-0.34-13.44-2.36-26.6-5.92-38.5c8.25-3.06,15.6-6.85,21.9-11.28l0.16-0.12l-5.08-6.2c-5.61,3.9-12.16,7.25-19.52,10.01
		c-6.47-17.42-15.89-30.38-26.93-37.55c-6.39-1.5-13.04-2.31-19.88-2.36h0.67c-0.22-0.01-0.44-0.01-0.67-0.01
		c-0.11,0-0.22,0-0.33,0.01c-0.11-0.01-0.22-0.01-0.34-0.01c-0.22,0-0.45,0-0.67,0.01h0.67c-6.83,0.05-13.48,0.86-19.87,2.36
		c-11.04,7.16-20.47,20.13-26.93,37.55c-7.38-2.76-13.93-6.12-19.53-10.02c-1.78,1.99-3.48,4.06-5.08,6.21l0.16,0.12
		c6.3,4.43,13.65,8.22,21.91,11.28c-3.56,11.9-5.59,25.06-5.92,38.5h-33.97c-0.07,1.32-0.1,2.66-0.1,4s0.03,2.68,0.1,4h33.97
		c0.33,13.43,2.36,26.59,5.92,38.5c-8.26,3.06-15.61,6.85-21.91,11.28l-0.16,0.12c1.6,2.15,3.3,4.22,5.08,6.21
		c5.6-3.9,12.15-7.26,19.53-10.02c6.46,17.42,15.89,30.39,26.93,37.55c6.39,1.5,13.04,2.31,19.87,2.36h-0.67
		c0.22,0.01,0.45,0.01,0.67,0.01h0.67c0.23,0,0.45,0,0.67-0.01h-0.67c6.84-0.05,13.49-0.86,19.88-2.36
		c11.04-7.16,20.46-20.13,26.93-37.55c7.37,2.76,13.92,6.11,19.52,10.01c1.79-1.99,3.49-4.06,5.08-6.2l-0.16-0.12
		c-6.29-4.43-13.65-8.21-21.9-11.28c3.56-11.91,5.58-25.07,5.92-38.5L316.573,210.041L316.573,210.041z M223.333,291.731
		c-14.37-2.22-27.7-16.36-35.87-38.12c11.08-3.28,23.33-5.15,35.87-5.48V291.731z M223.333,240.131c-13.4,0.34-26.52,2.34-38.4,5.89
		c-3.3-11.12-5.18-23.4-5.51-35.98h43.91V240.131z M223.333,202.041h-43.91c0.33-12.58,2.21-24.87,5.51-35.98
		c11.88,3.54,25,5.55,38.4,5.89L223.333,202.041L223.333,202.041z M223.333,163.951c-12.54-0.33-24.78-2.2-35.87-5.48
		c8.16-21.75,21.49-35.9,35.87-38.13V163.951z M231.333,120.461c14.12,2.56,27.17,16.59,35.21,38.01
		c-10.89,3.22-22.9,5.08-35.21,5.46L231.333,120.461L231.333,120.461z M231.333,291.621v-43.48c12.31,0.38,24.32,2.25,35.21,5.47
		C258.493,275.031,245.453,289.061,231.333,291.621z M269.063,246.021c-11.68-3.49-24.56-5.49-37.73-5.87v-30.11h43.25
		C274.253,222.621,272.363,234.901,269.063,246.021z M231.333,202.041v-30.11c13.17-0.39,26.05-2.39,37.73-5.87
		c3.3,11.11,5.19,23.4,5.52,35.98H231.333z"/>
</g>
<g>
</g>
<g>
</g>
<g>
</g>
<g>
</g>
<g>
</g>
<g>
</g>
<g>
</g>
<g>
</g>
<g>
</g>
<g>
</g>
<g>
</g>
<g>
</g>
<g>
</g>
<g>
</g>
<g>
</g>
</svg>
