<?xml version="1.0" encoding="iso-8859-1"?>
<!-- Generator: Adobe Illustrator 19.0.0, SVG Export Plug-In . SVG Version: 6.00 Build 0)  -->
<svg version="1.1" id="Layer_1" xmlns="http://www.w3.org/2000/svg" xmlns:xlink="http://www.w3.org/1999/xlink" x="0px" y="0px"
	 viewBox="0 0 453.35 453.35" style="enable-background:new 0 0 453.35 453.35;" xml:space="preserve">
<g>
	<polygon style="fill:#F2F2F2;" points="403.2,184.415 403.2,384.435 50.16,384.435 50.16,184.415 117.28,184.415 117.28,287.505 
		336.08,287.505 336.08,184.415 	"/>
	<path style="fill:#70B1E0;" d="M426.2,407.435h27.15c0,20.71-16.79,37.5-37.5,37.5H37.5c-10.36,0-19.73-4.2-26.52-10.98
		C4.2,427.165,0,417.785,0,407.435h27.16H426.2z"/>
	<path style="fill:#88C5FC;" d="M426.2,179.695v227.74H27.16v-227.74c0-10.1,8.19-18.28,18.28-18.28h71.84v23H50.16v200.02H403.2
		v-200.02h-67.12v-23h71.84C418.02,161.415,426.2,169.595,426.2,179.695z"/>
	<rect x="97.578" y="313.966" style="fill:#4D4D4D;" width="258.194" height="15"/>
	<rect x="97.578" y="341.89" style="fill:#4D4D4D;" width="258.194" height="15"/>
	<g>
		<path style="opacity:0.23;fill:#F2F2F2;enable-background:new    ;" d="M453.35,407.435c0,11.27-4.98,21.39-12.85,28.26H318.92
			l14.7-28.26H453.35z"/>
	</g>
	<g>
		<path style="opacity:0.23;fill:#F2F2F2;enable-background:new    ;" d="M426.2,179.695v227.74H238.38l11.97-23l104.09-200.02
			l11.97-23h41.51C418.02,161.415,426.2,169.595,426.2,179.695z"/>
		<path style="opacity:0.23;fill:#F2F2F2;enable-background:new    ;" d="M117.28,161.415v19.53l-1.8,3.47l-7.17,13.77l-11.83,22.74
			l-25.96,49.88l-12.39,23.82l-7.97,15.31l-15.97,30.69l-7.03,13.51v-174.44c0-10.1,8.19-18.28,18.28-18.28L117.28,161.415
			L117.28,161.415z"/>
	</g>
	<polygon style="opacity:0.23;fill:#808080;enable-background:new    ;" points="362.929,161.415 90.431,161.415 117.28,287.505 
		336.08,287.505 	"/>
	<polygon style="opacity:0.23;fill:#E6E6E6;enable-background:new    ;" points="336.08,58.005 286.48,58.005 286.48,8.415 	"/>
	<polygon style="fill:#E6E6E6;" points="336.08,184.415 336.08,287.505 117.28,287.505 117.28,184.415 117.28,161.415 117.28,8.415 
		286.48,8.415 286.48,58.005 336.08,58.005 336.08,161.415 	"/>
	<g>
		<rect x="165.928" y="126.337" style="fill:#4D4D4D;" width="121.495" height="15"/>
		<rect x="165.928" y="98.413" style="fill:#4D4D4D;" width="121.495" height="15"/>
		<rect x="165.928" y="154.261" style="fill:#4D4D4D;" width="121.495" height="15"/>
		<rect x="165.928" y="182.185" style="fill:#4D4D4D;" width="121.495" height="15"/>
		<rect x="165.928" y="210.109" style="fill:#4D4D4D;" width="121.495" height="15"/>
	</g>
	<polygon style="opacity:0.23;fill:#808080;enable-background:new    ;" points="292.68,58.005 292.68,72.945 336.08,58.005 	"/>
</g>
<g>
</g>
<g>
</g>
<g>
</g>
<g>
</g>
<g>
</g>
<g>
</g>
<g>
</g>
<g>
</g>
<g>
</g>
<g>
</g>
<g>
</g>
<g>
</g>
<g>
</g>
<g>
</g>
<g>
</g>
</svg>
