<?xml version="1.0" encoding="iso-8859-1"?>
<!-- Generator: Adobe Illustrator 19.0.0, SVG Export Plug-In . SVG Version: 6.00 Build 0)  -->
<svg version="1.1" id="Layer_1" xmlns="http://www.w3.org/2000/svg" xmlns:xlink="http://www.w3.org/1999/xlink" x="0px" y="0px"
	 viewBox="0 0 453.35 453.35" style="enable-background:new 0 0 453.35 453.35;" xml:space="preserve">
<g>
	<rect x="50.16" y="93.91" style="fill:#AFDAF9;" width="353.04" height="200.02"/>
	<path style="fill:#CCCCCC;" d="M426.2,89.19v227.74h-71.75c-0.91-7.75-2.18-15.41-3.81-23h52.56V93.91H50.16v200.02h55.92
		c-1.62,7.59-2.9,15.25-3.79,23H27.16V89.19c0-10.1,8.18-18.28,18.28-18.28h362.48C418.01,70.91,426.2,79.09,426.2,89.19z"/>
	<path style="fill:#B3B3B3;" d="M453.35,316.94c0,20.71-16.79,37.5-37.5,37.5h-60.2c0.68-12.72,0.22-25.21-1.2-37.5H453.35z"/>
	<path style="fill:#B3B3B3;" d="M101.07,354.44H37.5c-10.36,0-19.73-4.2-26.52-10.98C4.2,336.67,0,327.3,0,316.94h102.28
		C100.85,329.23,100.39,341.72,101.07,354.44z"/>
	<rect x="177.179" y="131.63" style="fill:#4D4D4D;" width="98.996" height="15"/>
	<rect x="138.181" y="155.629" style="fill:#4D4D4D;" width="176.992" height="15"/>
	<path style="opacity:0.23;fill:#808080;enable-background:new    ;" d="M102.28,316.94c-1.43,12.29-1.89,24.78-1.21,37.5H80.885
		l14.435-37.5H102.28z"/>
	<path style="opacity:0.23;fill:#808080;enable-background:new    ;" d="M355.65,354.44c0.68-12.72,0.22-25.21-1.2-37.5h6.95
		l14.435,37.5H355.65z"/>
	<path style="opacity:0.23;fill:#808080;enable-background:new    ;" d="M128.17,228.44c0,0-38.203,64.175-40.157,88.5h57.333"/>
	<g>
		<path style="opacity:0.23;fill:#F2F2F2;enable-background:new    ;" d="M426.2,89.19v227.74H238.38l11.97-23L354.44,93.91
			l11.97-23h41.51C418.02,70.91,426.2,79.09,426.2,89.19z"/>
		<path style="opacity:0.23;fill:#F2F2F2;enable-background:new    ;" d="M126.68,70.91L27.16,263.63V89.19
			c0-10.1,8.19-18.28,18.28-18.28H126.68z"/>
	</g>
	<g>
		<path style="opacity:0.23;fill:#F2F2F2;enable-background:new    ;" d="M453.35,316.93c0,11.27-4.98,21.39-12.85,28.26H318.92
			l14.7-28.26H453.35z"/>
	</g>
	<path style="opacity:0.23;fill:#808080;enable-background:new    ;" d="M328.55,228.44c0,0,38.203,64.175,40.157,88.5h-57.333"/>
	<path style="fill:#E6E6E6;" d="M354.45,316.94c1.42,12.29,1.88,24.78,1.2,37.5c-0.47,9.21-1.55,18.54-3.29,28h-248
		c-1.74-9.46-2.81-18.79-3.29-28c-0.68-12.72-0.22-25.21,1.21-37.5h0.01v-0.01c0.89-7.75,2.17-15.41,3.79-23
		c3.16-14.85,7.61-29.41,13.04-43.7c2.78-7.33,5.81-14.59,9.05-21.79h200.38c3.24,7.2,6.28,14.46,9.05,21.79
		c5.43,14.29,9.89,28.85,13.04,43.7c1.63,7.59,2.9,15.25,3.81,23C354.44,316.94,354.45,316.94,354.45,316.94z"/>
	<g>
		<path style="fill:#4D4D4D;" d="M312.843,272.736H143.888c1.114-3.673,2.349-7.309,3.672-10.931h161.6
			C310.494,265.426,311.718,269.07,312.843,272.736z"/>
		<path style="fill:#4D4D4D;" d="M318.158,297.682H138.562c0.209-1.249,0.441-2.481,0.673-3.722c0.541-2.856,1.136-5.697,1.787-8.52
			H315.71c0.639,2.832,1.235,5.664,1.775,8.52C317.728,295.201,317.949,296.433,318.158,297.682z"/>
		<path style="fill:#4D4D4D;" d="M320.97,327.38H135.76c0.177-3.5,0.408-6.98,0.706-10.44h0.011v-0.01
			c0.121-1.52,0.265-3.04,0.408-4.55h182.949c0.166,1.51,0.298,3.03,0.43,4.55v0.01C320.551,320.41,320.794,323.89,320.97,327.38z"
			/>
		<path style="fill:#4D4D4D;" d="M278.689,341.27c0.012,4.36-0.024,8.75-0.119,13.17c-0.012,0.61-0.024,1.22-0.042,1.83H178.192
			c-0.018-0.61-0.03-1.22-0.042-1.83c-0.095-4.42-0.131-8.81-0.119-13.17H278.689z"/>
	</g>
</g>
<g>
</g>
<g>
</g>
<g>
</g>
<g>
</g>
<g>
</g>
<g>
</g>
<g>
</g>
<g>
</g>
<g>
</g>
<g>
</g>
<g>
</g>
<g>
</g>
<g>
</g>
<g>
</g>
<g>
</g>
</svg>
