<?xml version="1.0" encoding="iso-8859-1"?>
<!-- Generator: Adobe Illustrator 19.0.0, SVG Export Plug-In . SVG Version: 6.00 Build 0)  -->
<svg version="1.1" id="Layer_1" xmlns="http://www.w3.org/2000/svg" xmlns:xlink="http://www.w3.org/1999/xlink" x="0px" y="0px"
	 viewBox="0 0 453.35 453.35" style="enable-background:new 0 0 453.35 453.35;" xml:space="preserve">
<g>
	<path style="fill:#88C5FC;" d="M426.2,129.87v227.74H27.16V129.87c0-10.1,8.18-18.28,18.28-18.28h122l2.41,0.71
		c-1.58,5.33-2.42,10.97-2.42,16.81c0,1.85,0.08,3.67,0.26,5.48H50.16v200.02H403.2V134.59H285.66c0.18-1.81,0.26-3.63,0.26-5.48
		c0-5.84-0.84-11.48-2.42-16.81l2.41-0.71h122.01C418.01,111.59,426.2,119.77,426.2,129.87z"/>
	<path style="fill:#F2F2F2;" d="M403.2,134.59v200.02h-78.04v-95.4c0-27.86-22.58-50.44-50.44-50.44c-4.14,0-8.18,1.22-11.7,3.41
		c-10.55,6.57-23,10.37-36.34,10.37s-25.8-3.8-36.35-10.37c-3.52-2.19-7.55-3.41-11.7-3.41c-13.92,0-26.53,5.65-35.66,14.77
		c-9.12,9.13-14.77,21.74-14.77,35.67v95.4H50.16V134.59h117.53c2.76,30.15,28.12,53.77,58.99,53.77s56.23-23.62,58.98-53.77h37.24
		h55.37H403.2z"/>
	<path style="fill:#70B1E0;" d="M426.2,357.61h27.15c0,20.71-16.79,37.5-37.5,37.5H37.5c-10.36,0-19.73-4.2-26.52-10.98
		C4.2,377.34,0,367.97,0,357.61h27.16H426.2z"/>
	<path style="fill:#F9DD53;" d="M325.16,239.21v95.4H128.2v-95.4c0-13.93,5.65-26.54,14.77-35.67c9.13-9.12,21.74-14.77,35.66-14.77
		c1.78,0,3.55,0.22,5.26,0.66c2.26,0.57,4.43,1.5,6.44,2.75c10.55,6.57,23.01,10.37,36.35,10.37s25.79-3.8,36.34-10.37
		c2.01-1.25,4.18-2.18,6.45-2.75c1.7-0.44,3.47-0.66,5.25-0.66C302.58,188.77,325.16,211.35,325.16,239.21z"/>
	<g>
		<path style="opacity:0.23;fill:#F2F2F2;enable-background:new    ;" d="M366.62,111.59l-12.18,23l-27.21,52.29l-76.88,147.73
			l-11.97,23H426.2V129.87c0-0.32-0.01-0.63-0.02-0.94c-0.03-0.59-0.09-1.17-0.18-1.74c-0.04-0.34-0.1-0.68-0.17-1.01
			c-0.12-0.59-0.27-1.18-0.45-1.75c-0.09-0.28-0.18-0.57-0.29-0.85c-0.2-0.56-0.44-1.11-0.7-1.64c-0.09-0.21-0.2-0.41-0.31-0.61
			c-0.04-0.1-0.1-0.19-0.16-0.29c-0.09-0.19-0.2-0.37-0.31-0.55c-0.02-0.05-0.05-0.09-0.09-0.14c-0.14-0.24-0.29-0.47-0.45-0.7
			c-0.16-0.25-0.33-0.49-0.51-0.72c-0.52-0.71-1.1-1.37-1.72-1.99c-0.42-0.41-0.85-0.81-1.3-1.18c-1.35-1.12-2.87-2.04-4.51-2.74
			c-0.55-0.23-1.1-0.43-1.68-0.61c-1.71-0.53-3.54-0.82-5.43-0.82h-31.31H366.62z"/>
		<path style="opacity:0.23;fill:#F2F2F2;enable-background:new    ;" d="M125.363,111.59L27.16,304.31V129.87
			c0-10.1,8.19-18.28,18.28-18.28H125.363z"/>
	</g>
	<g>
		<path style="opacity:0.23;fill:#F2F2F2;enable-background:new    ;" d="M453.35,357.61c0,11.27-4.98,21.39-12.85,28.26H318.92
			l14.7-28.26H453.35z"/>
	</g>
	<path style="opacity:0.23;fill:#808080;enable-background:new    ;" d="M167.43,129.11c0,1.85,0.08,3.67,0.26,5.48h-12.02
		c-1.02-4.85-1.55-9.71-1.55-14.45c0-2.9,0.2-5.75,0.59-8.55h12.73l2.41,0.71C168.27,117.63,167.43,123.27,167.43,129.11z"/>
	<path style="opacity:0.23;fill:#808080;enable-background:new    ;" d="M285.92,129.11c0,1.85-0.08,3.67-0.26,5.48h12.02
		c1.02-4.85,1.55-9.71,1.55-14.45c0-2.9-0.2-5.75-0.59-8.55h-12.73l-2.41,0.71C285.08,117.63,285.92,123.27,285.92,129.11z"/>
	<path style="opacity:0.23;fill:#808080;enable-background:new    ;" d="M161.81,109.59c0.12,1.36,0.23,2.6,0.3,3.61
		C161.61,111.51,160.97,109.59,161.81,109.59z"/>
	<path style="fill:#FFDED7;" d="M271.43,202.55c0,24.71-20.04,44.75-44.75,44.75s-44.75-20.04-44.75-44.75
		c0-4.57,0.68-8.97,1.96-13.12c2.26,0.57,4.43,1.5,6.44,2.75c0.8,0.5,1.62,0.98,2.45,1.45l1.7-7.34l3.33-14.34
		c7.09,7.93,17.4,12.91,28.87,12.91c10.63,0,20.25-4.28,27.26-11.22l3.31,14.25l1.56,6.71c1.43-0.76,2.84-1.57,4.21-2.42
		c2.01-1.25,4.18-2.18,6.45-2.75C270.75,193.58,271.43,197.98,271.43,202.55z"/>
	<path style="opacity:0.23;fill:#808080;enable-background:new    ;" d="M271.43,202.55c0,24.71-20.04,44.75-44.75,44.75
		s-44.75-20.04-44.75-44.75c0-4.57,0.68-8.97,1.96-13.12c1.42,0.36,2.8,0.86,4.13,1.49c-0.06,0.83-0.09,1.67-0.09,2.52
		c0,21.4,17.35,38.75,38.75,38.75c21.39,0,38.75-17.35,38.75-38.75c0-0.85-0.03-1.69-0.09-2.53c1.32-0.62,2.71-1.12,4.13-1.48
		C270.75,193.58,271.43,197.98,271.43,202.55z"/>
	<path style="opacity:0.23;fill:#808080;enable-background:new    ;" d="M257.25,187.89c-8,7.49-18.74,12.08-30.57,12.08
		c-12.64,0-24.06-5.24-32.2-13.68l3.33-14.34c7.09,7.93,17.4,12.91,28.87,12.91c10.63,0,20.25-4.28,27.26-11.22L257.25,187.89z"/>
	<path style="fill:#FFDED7;" d="M288.57,120.14c0,0.34,0,0.69-0.01,1.04c-0.55,33.95-28.04,73.29-61.88,73.29
		c-34.18,0-61.89-40.15-61.89-74.33c0-3.68,0.32-7.28,0.94-10.78c0.48-2.7,1.13-5.34,1.94-7.91c0.38-1.23,0.81-2.44,1.27-3.63
		c2.88-7.46,7.16-14.21,12.52-19.94c6.64-7.11,14.95-12.66,24.29-16.01c4.19-1.51,8.6-2.58,13.16-3.14c1.91-0.25,3.84-0.4,5.8-0.46
		c0.6-0.02,1.21-0.03,1.82-0.03c0.55,0,1.1,0.01,1.64,0.02c0.53,0.01,1.05,0.03,1.58,0.06c0.46,0.02,0.92,0.04,1.38,0.08
		c28.97,2.05,52.42,24.05,56.72,52.34c0.14,0.9,0.26,1.82,0.36,2.76C288.45,115.68,288.57,117.9,288.57,120.14z"/>
	<path style="fill:#666666;" d="M226.68,58.24c-2.63,0-5.23,0.16-7.77,0.49c-4.56,0.56-8.97,1.63-13.16,3.14
		c-16.88,6.06-30.36,19.26-36.81,35.95c2.41,0.43,4.88,0.65,7.41,0.65c11.49,0,21.93-4.55,29.6-11.93
		c5.66,22.19,25.78,38.6,49.73,38.6c12.35,0,23.68-4.36,32.53-11.64C284.91,82.43,258.62,58.24,226.68,58.24z"/>
	<rect x="128.2" y="319.803" style="opacity:0.23;fill:#808080;enable-background:new    ;" width="196.813" height="14.807"/>
</g>
<g>
</g>
<g>
</g>
<g>
</g>
<g>
</g>
<g>
</g>
<g>
</g>
<g>
</g>
<g>
</g>
<g>
</g>
<g>
</g>
<g>
</g>
<g>
</g>
<g>
</g>
<g>
</g>
<g>
</g>
</svg>
