<?xml version="1.0" encoding="iso-8859-1"?>
<!-- Generator: Adobe Illustrator 19.0.0, SVG Export Plug-In . SVG Version: 6.00 Build 0)  -->
<svg version="1.1" id="Layer_1" xmlns="http://www.w3.org/2000/svg" xmlns:xlink="http://www.w3.org/1999/xlink" x="0px" y="0px"
	 viewBox="0 0 415.867 415.867" style="enable-background:new 0 0 415.867 415.867;" xml:space="preserve">
<g>
	<g>
		<path style="fill:#AFDAF9;" d="M317.126,208.203c0,1.575-0.035,3.151-0.117,4.703c-0.952,21.949-8.594,42.17-20.962,58.664
			c-1.869,2.516-3.868,4.949-5.972,7.289c-14.213,15.848-33.153,27.38-54.608,32.377c-7.512,1.763-15.33,2.716-23.371,2.775h0.788
			c-0.259,0.012-0.517,0.012-0.788,0.012h-0.788c-0.259,0-0.529,0-0.788-0.012h0.788c-8.029-0.059-15.848-1.011-23.36-2.775
			c-21.455-4.996-40.395-16.518-54.62-32.365c-2.093-2.339-4.091-4.773-5.972-7.301c-12.356-16.494-20.009-36.715-20.95-58.664
			c-0.082-1.552-0.117-3.127-0.117-4.703c0-1.575,0.035-3.151,0.117-4.703c0.941-21.949,8.594-42.17,20.95-58.664
			c1.881-2.528,3.88-4.961,5.972-7.301c14.225-15.848,33.165-27.369,54.62-32.365c7.512-1.763,15.33-2.715,23.36-2.774h-0.788
			c0.259-0.012,0.529-0.012,0.788-0.012c0.141,0,0.271,0,0.4,0.012c0.129-0.012,0.259-0.012,0.388-0.012c0.27,0,0.529,0,0.788,0.012
			h-0.788c8.041,0.059,15.859,1.011,23.371,2.774c21.455,4.996,40.395,16.53,54.608,32.377l5.972,7.289
			c12.368,16.494,20.009,36.715,20.962,58.664C317.091,205.052,317.126,206.628,317.126,208.203z"/>
		<path style="fill:#97C9E8;" d="M317.008,212.906c0.082-1.552,0.117-3.127,0.117-4.703c0-1.575-0.035-3.151-0.117-4.703h-39.936
			c-0.4-15.8-2.775-31.272-6.96-45.262c9.699-3.598,18.34-8.053,25.747-13.261l0.188-0.141l-5.972-7.289
			c-6.595,4.585-14.296,8.523-22.948,11.768c-7.607-20.479-18.681-35.716-31.66-44.145c-7.512-1.763-15.33-2.715-23.371-2.774h0.788
			c-0.259-0.012-0.517-0.012-0.788-0.012c-0.129,0-0.259,0-0.388,0.012c-0.129-0.012-0.259-0.012-0.4-0.012
			c-0.259,0-0.529,0-0.788,0.012h0.788c-8.029,0.059-15.848,1.011-23.36,2.774c-12.979,8.418-24.065,23.666-31.66,44.145
			c-8.676-3.245-16.377-7.195-22.96-11.78c-2.093,2.339-4.091,4.773-5.972,7.301l0.188,0.141
			c7.407,5.208,16.048,9.664,25.758,13.261c-4.185,13.99-6.572,29.461-6.96,45.262h-39.936c-0.082,1.552-0.117,3.127-0.117,4.703
			c0,1.575,0.035,3.151,0.117,4.703h39.936c0.388,15.789,2.775,31.26,6.96,45.262c-9.711,3.598-18.352,8.053-25.758,13.261
			l-0.188,0.141c1.881,2.528,3.88,4.961,5.972,7.301c6.583-4.585,14.284-8.535,22.96-11.78c7.595,20.48,18.681,35.728,31.66,44.145
			c7.512,1.763,15.33,2.716,23.36,2.775h-0.788c0.259,0.012,0.529,0.012,0.788,0.012h0.788c0.27,0,0.529,0,0.788-0.012h-0.788
			c8.041-0.059,15.859-1.011,23.371-2.775c12.979-8.417,24.053-23.665,31.66-44.145c8.664,3.245,16.365,7.183,22.948,11.768
			c2.104-2.34,4.103-4.773,5.972-7.289l-0.188-0.141c-7.395-5.208-16.048-9.652-25.747-13.261c4.185-14.002,6.56-29.473,6.96-45.262
			H317.008z M207.392,308.944c-16.894-2.61-32.565-19.233-42.17-44.815c13.026-3.856,27.428-6.054,42.17-6.442V308.944z
			 M207.392,248.281c-15.754,0.4-31.178,2.751-45.145,6.925c-3.88-13.073-6.09-27.51-6.478-42.299h51.622v35.374H207.392z
			 M207.392,203.501H155.77c0.388-14.79,2.598-29.238,6.478-42.299c13.967,4.162,29.391,6.525,45.145,6.924v35.375H207.392z
			 M207.392,158.72c-14.743-0.388-29.132-2.586-42.17-6.442c9.593-25.57,25.264-42.205,42.17-44.827V158.72z M216.797,107.593
			c16.6,3.01,31.942,19.504,41.394,44.686c-12.803,3.786-26.922,5.972-41.394,6.419L216.797,107.593L216.797,107.593z
			 M216.797,308.814v-51.117c14.472,0.447,28.591,2.645,41.394,6.43C248.727,289.311,233.397,305.805,216.797,308.814z
			 M261.154,255.204c-13.732-4.103-28.874-6.454-44.357-6.901v-35.398h50.846C267.256,227.695,265.033,242.132,261.154,255.204z
			 M216.797,203.501v-35.399c15.483-0.458,30.625-2.81,44.357-6.901c3.879,13.061,6.101,27.51,6.49,42.299h-50.847V203.501z"/>
	</g>
	<path style="fill:#F9A18A;" d="M246.495,71.844h-70.3V1.545h70.3V71.844z M191.195,56.844h40.3V16.545h-40.3V56.844z"/>
	<path style="fill:#F9A18A;" d="M257.821,414.323h-92.953l46.477-76.108L257.821,414.323z M191.604,399.323h39.48l-19.74-32.327
		L191.604,399.323z"/>
	<path style="fill:#F9A18A;" d="M39.836,248.038C17.87,248.038,0,230.169,0,208.203s17.87-39.835,39.836-39.835
		c21.965,0,39.835,17.87,39.835,39.835C79.671,230.169,61.801,248.038,39.836,248.038z M39.836,183.368
		C26.142,183.368,15,194.509,15,208.203s11.142,24.835,24.836,24.835s24.835-11.141,24.835-24.835
		C64.671,194.509,53.53,183.368,39.836,183.368z"/>
	<polygon style="fill:#F9A18A;" points="415.867,185.798 405.261,175.19 382.854,197.596 360.448,175.19 349.842,185.798 
		372.248,208.203 349.842,230.609 360.448,241.216 382.854,218.809 405.261,241.216 415.867,230.609 393.461,208.203 	"/>
	<path style="fill:#E6E6E6;" d="M61.05,136.539l-13.535-6.465c18.111-37.919,49.053-68.599,87.125-86.39l6.35,13.59
		C106.057,73.598,77.667,101.748,61.05,136.539z"/>
	<path style="fill:#E6E6E6;" d="M288.051,372.717l-6.35-13.59c35.891-16.77,64.712-45.842,81.152-81.861l13.646,6.229
		C358.58,322.754,327.168,354.44,288.051,372.717z"/>
	<path style="fill:#E6E6E6;" d="M361.642,136.539c-16.615-34.785-45.006-62.936-79.941-79.266l6.352-13.589
		c38.075,17.798,69.017,48.478,87.125,86.39L361.642,136.539z"/>
	<path style="fill:#E6E6E6;" d="M134.64,372.717c-39.118-18.278-70.529-49.965-88.448-89.222l13.646-6.229
		c16.439,36.018,45.26,65.09,81.151,81.861L134.64,372.717z"/>
</g>
<g>
</g>
<g>
</g>
<g>
</g>
<g>
</g>
<g>
</g>
<g>
</g>
<g>
</g>
<g>
</g>
<g>
</g>
<g>
</g>
<g>
</g>
<g>
</g>
<g>
</g>
<g>
</g>
<g>
</g>
</svg>
