<?xml version="1.0" encoding="iso-8859-1"?>
<!-- Generator: Adobe Illustrator 19.0.0, SVG Export Plug-In . SVG Version: 6.00 Build 0)  -->
<svg version="1.1" id="Layer_1" xmlns="http://www.w3.org/2000/svg" xmlns:xlink="http://www.w3.org/1999/xlink" x="0px" y="0px"
	 viewBox="0 0 434.98 434.98" style="enable-background:new 0 0 434.98 434.98;" xml:space="preserve">
<g>
	<circle style="fill:#F9DD53;" cx="35.107" cy="217.49" r="35.107"/>
	<circle style="fill:#F9DD53;" cx="399.873" cy="217.49" r="35.107"/>
	<circle style="fill:#F9DD53;" cx="88.526" cy="346.454" r="35.107"/>
	<path style="fill:#F9DD53;" d="M252.593,399.869c0,19.39-15.71,35.11-35.1,35.11c-2.79,0-5.49-0.32-8.09-0.94
		c-6.22-1.46-11.8-4.58-16.26-8.87c-6.63-6.39-10.76-15.36-10.76-25.3c0-19.39,15.72-35.1,35.11-35.1c5.25,0,10.23,1.15,14.7,3.22
		c4.66,2.15,8.76,5.29,12.05,9.15C249.453,383.259,252.593,391.199,252.593,399.869z"/>
	<path style="fill:#F9DD53;" d="M371.273,371.279c-12.9,12.9-33.34,13.66-47.13,2.28c-0.87-0.71-1.7-1.47-2.51-2.28
		c-13.71-13.71-13.71-35.94,0-49.65c6.93-6.93,16.04-10.36,25.13-10.28c8.88,0.08,17.73,3.51,24.51,10.28
		C384.983,335.339,384.983,357.569,371.273,371.279z"/>
	<circle style="fill:#F9DD53;" cx="346.454" cy="88.526" r="35.107"/>
	<circle style="fill:#F9DD53;" cx="217.49" cy="35.108" r="35.107"/>
	<circle style="fill:#F9DD53;" cx="88.526" cy="88.526" r="35.107"/>
	<rect x="180.543" y="162.689" style="fill:#F9A18A;" width="73.89" height="109.6"/>
	<rect x="180.542" y="192.865" style="fill:#DB7D6A;" width="73.896" height="15"/>
	<rect x="180.542" y="227.115" style="fill:#DB7D6A;" width="73.896" height="15"/>
	<g>
		<rect x="209.99" y="87.545" style="fill:#E6E6E6;" width="15" height="50.963"/>
		<rect x="209.99" y="296.472" style="fill:#E6E6E6;" width="15" height="50.963"/>
		
			<rect x="118.142" y="136.122" transform="matrix(-0.7071 -0.7071 0.7071 -0.7071 143.6238 346.7353)" style="fill:#E6E6E6;" width="50.963" height="15"/>
		
			<rect x="265.875" y="283.853" transform="matrix(-0.7071 -0.7071 0.7071 -0.7071 291.3591 703.3908)" style="fill:#E6E6E6;" width="50.963" height="15"/>
		<rect x="87.545" y="209.99" style="fill:#E6E6E6;" width="50.963" height="15"/>
		<rect x="296.472" y="209.99" style="fill:#E6E6E6;" width="50.963" height="15"/>
		
			<rect x="136.124" y="265.873" transform="matrix(-0.7071 -0.7071 0.7071 -0.7071 39.1625 598.9302)" style="fill:#E6E6E6;" width="15" height="50.963"/>
		
			<rect x="283.856" y="118.14" transform="matrix(-0.7071 -0.7071 0.7071 -0.7071 395.8204 451.1959)" style="fill:#E6E6E6;" width="15" height="50.963"/>
	</g>
	<g>
		<polygon style="opacity:0.23;fill:#F2F2F2;enable-background:new    ;" points="254.433,180.219 254.433,272.289 206.523,272.289 
					"/>
	</g>
	<g>
		<polygon style="opacity:0.23;fill:#F2F2F2;enable-background:new    ;" points="211.343,162.689 180.543,221.879 180.543,162.689 
					"/>
	</g>
</g>
<g>
</g>
<g>
</g>
<g>
</g>
<g>
</g>
<g>
</g>
<g>
</g>
<g>
</g>
<g>
</g>
<g>
</g>
<g>
</g>
<g>
</g>
<g>
</g>
<g>
</g>
<g>
</g>
<g>
</g>
</svg>
