<?xml version="1.0" encoding="iso-8859-1"?>
<!-- Generator: Adobe Illustrator 19.0.0, SVG Export Plug-In . SVG Version: 6.00 Build 0)  -->
<svg version="1.1" id="Layer_1" xmlns="http://www.w3.org/2000/svg" xmlns:xlink="http://www.w3.org/1999/xlink" x="0px" y="0px"
	 viewBox="0 0 450.36 450.36" style="enable-background:new 0 0 450.36 450.36;" xml:space="preserve">
<g>
	<path style="fill:#AFDAF9;" d="M450.36,349.455c0,41.42-33.58,75-75,75H75c-41.42,0-75-33.58-75-75
		c0-41.14,33.12-74.52,74.16-74.98c-0.02-0.6-0.05-1.2-0.05-1.81c0-23.36,10.68-44.23,27.43-57.99
		c10.11-8.31,22.44-14.02,35.96-16.12v71.98c-1.27,1.08-2.48,2.24-3.66,3.46c-4.52,4.69-8.24,10.35-10.57,16.45
		c-0.84,2.18-1.5,4.31-2.09,6.57c-1.5,5.7-1.47,11.46-1,17.29c0.49-2.41,0.79-4.85,1.49-7.22c2.49-8.5,6.55-16.4,12.8-22.76
		c3.35-3.41,7.29-6.58,11.55-8.77c6.38-3.28,13.46-5.78,20.73-5.83c1.73-0.02,3.46-0.09,5.19,0.05c4.65,0.36,9.19,1.3,13.55,3
		c3.63,1.41,7.11,3.27,10.25,5.58c3.16,2.32,5.84,5.04,8.44,7.96c2.58,2.89,6.94,3.5,10.08,1.09c1.53-1.18,2.45-3.02,3.52-4.6
		c1.39-2.05,2.9-4.01,4.52-5.89c4.07-4.72,9.01-8.75,14.34-11.97c5.27-3.19,11.14-5.46,17.13-6.87c3.95-0.92,7.95-1.29,11.98-1.52
		c6.59-0.13,13.2,0.72,19.51,2.66c11.96,3.67,22.65,11.07,30.49,20.8c7.97,9.9,12.61,21.76,14.43,34.29
		c0.02-0.18,0.04-0.34,0.06-0.5c0.21-1.72,0.33-3.46,0.38-5.2c0.42-14.24-4.39-28.14-12.95-39.46c-1.49-1.97-3.1-3.86-4.81-5.65
		v-88.46c12.07,5.95,22.61,14.5,30.92,24.92c12.41,15.55,19.83,35.26,19.83,56.71c0,6.54-0.69,12.92-2,19.07
		c4.46-0.83,9.05-1.28,13.75-1.28C416.78,274.455,450.36,308.035,450.36,349.455z"/>
	<g style="opacity:0.23;">
		<path style="fill:#808080;" d="M375.36,382.455c-41.42,0-258.94,0-300.36,0c-34.128,0-62.914-22.806-71.999-54.002
			C1.06,335.119,0,342.161,0,349.455c0,41.42,33.58,75,75,75s258.94,0,300.36,0s75-33.58,75-75c0-7.293-1.061-14.334-3.002-21
			C438.272,359.65,409.487,382.455,375.36,382.455z"/>
	</g>
	<path style="fill:#F2F2F2;" d="M137.5,59.665v210.87c4.88-4.24,10.42-7.53,16.55-9.86c6.9-2.63,14.68-3.7,22.06-3.28
		c11.9,0.67,23.39,5.24,32.53,12.83c2.12-2.76,4.42-5.35,6.91-7.78c3.57-3.48,7.51-6.58,11.81-9.26c7.86-4.91,16.82-8.32,26.01-9.62
		c10.35-1.48,20.75-0.82,30.79,2.23c10.71,3.25,20.62,9.34,28.41,17.41c0.1,0.09,0.2,0.19,0.29,0.29V59.665H137.5z M160.61,90.165
		h59v15h-59V90.165z M160.61,110.165h115v15h-115L160.61,110.165L160.61,110.165z M160.61,144.165h59v15h-59V144.165z
		 M275.61,179.165h-115v-15h115V179.165z"/>
	<path style="fill:#666666;" d="M312.86,42.065v17.6H137.5v-17.6c0-8.92,7.23-16.16,16.16-16.16h143.03
		C305.62,25.905,312.86,33.145,312.86,42.065z"/>
	<path d="M330.18,314.305c-0.49-3.35,0.37-3.49,0.06-0.5C330.22,313.965,330.2,314.125,330.18,314.305z"/>
	<rect x="160.61" y="164.165" style="fill:#4D4D4D;" width="115" height="15"/>
	<rect x="160.61" y="110.165" style="fill:#4D4D4D;" width="115" height="15"/>
	<rect x="160.61" y="144.165" style="fill:#4D4D4D;" width="59" height="15"/>
	<rect x="160.61" y="90.165" style="fill:#4D4D4D;" width="59" height="15"/>
	<path style="fill:#8DB7CC;" d="M317.67,269.145c-1.49-1.97-3.1-3.86-4.81-5.65c-7.84-8.21-17.86-14.41-28.7-17.7
		c-10.04-3.05-20.44-3.71-30.79-2.23c-9.19,1.3-18.15,4.71-26.01,9.62c-7.29,4.54-13.55,10.32-18.72,17.04
		c-9.14-7.59-20.63-12.16-32.53-12.83c-7.38-0.42-15.16,0.65-22.06,3.28c-6.13,2.33-11.67,5.62-16.55,9.86
		c-1.27,1.08-2.48,2.24-3.66,3.46c-4.52,4.69-8.24,10.35-10.57,16.45c-0.84,2.18-1.5,4.31-2.09,6.57c-1.5,5.7-1.47,11.46-1,17.29
		c0.49-2.41,0.79-4.85,1.49-7.22c2.49-8.5,6.55-16.4,12.8-22.76c3.35-3.41,7.29-6.58,11.55-8.77c6.38-3.28,13.46-5.78,20.73-5.83
		c1.73-0.02,3.46-0.09,5.19,0.05c4.65,0.36,9.19,1.3,13.55,3c3.63,1.41,7.11,3.27,10.25,5.58c3.16,2.32,5.84,5.04,8.44,7.96
		c2.58,2.89,6.94,3.5,10.08,1.09c1.53-1.18,2.45-3.02,3.52-4.6c1.39-2.05,2.9-4.01,4.52-5.89c4.07-4.72,9.01-8.75,14.34-11.97
		c5.27-3.19,11.14-5.46,17.13-6.87c3.95-0.92,7.95-1.29,11.98-1.52c6.59-0.13,13.2,0.72,19.51,2.66
		c11.96,3.67,22.65,11.07,30.49,20.8c7.97,9.9,12.61,21.76,14.43,34.29c-0.49-3.35,0.37-3.49,0.06-0.5c0.21-1.72,0.33-3.46,0.38-5.2
		C331.04,294.365,326.23,280.465,317.67,269.145z"/>
	<g>
		<path style="opacity:0.23;fill:#F2F2F2;enable-background:new    ;" d="M312.57,76.005v187.2c-7.79-8.07-17.7-14.16-28.41-17.41
			c-10.04-3.05-20.44-3.71-30.79-2.23c-9.19,1.3-18.15,4.71-26.01,9.62c-4.3,2.68-8.24,5.78-11.81,9.26l43.34-83.28l7.8-15
			l27.97-53.74L312.57,76.005z"/>
		<path style="opacity:0.23;fill:#F2F2F2;enable-background:new    ;" d="M219.678,25.905L205.27,53.803l-2.998,5.809l-7.144,13.832
			l-11.947,23.142l-7.144,13.838l-37.034,71.721l-1.503,2.911V46.659c0-11.464,9.29-20.754,20.754-20.754H219.678z"/>
	</g>
	<path style="opacity:0.23;fill:#808080;enable-background:new    ;" d="M137.5,198.555v71.98c0,0-17.6-44.62-35.96-55.86
		C111.65,206.365,123.98,200.655,137.5,198.555z"/>
	<path style="opacity:0.23;fill:#808080;enable-background:new    ;" d="M343.78,199.955c-20.08,14.79-29.23,53.85-30.92,61.82
		v-86.74C324.93,180.985,335.47,189.535,343.78,199.955z"/>
</g>
<g>
</g>
<g>
</g>
<g>
</g>
<g>
</g>
<g>
</g>
<g>
</g>
<g>
</g>
<g>
</g>
<g>
</g>
<g>
</g>
<g>
</g>
<g>
</g>
<g>
</g>
<g>
</g>
<g>
</g>
</svg>
