<?xml version="1.0" encoding="iso-8859-1"?>
<!-- Generator: Adobe Illustrator 19.0.0, SVG Export Plug-In . SVG Version: 6.00 Build 0)  -->
<svg version="1.1" id="Layer_1" xmlns="http://www.w3.org/2000/svg" xmlns:xlink="http://www.w3.org/1999/xlink" x="0px" y="0px"
	 viewBox="0 0 428.98 428.98" style="enable-background:new 0 0 428.98 428.98;" xml:space="preserve">
<g>
	<path style="fill:#E6E6E6;" d="M158.995,70.87v34.5h-24.75c-9.53,0-17.25-7.72-17.25-17.25c0-4.76,1.93-9.07,5.05-12.2
		c3.12-3.12,7.43-5.05,12.2-5.05H158.995z"/>
	<path style="fill:#88C5FC;" d="M83.995,50.25V126h260.99V50.25H83.995z M306.935,100.32c-3.12,3.12-7.44,5.05-12.2,5.05h-160.49
		c-9.53,0-17.25-7.72-17.25-17.25c0-4.76,1.93-9.07,5.05-12.2c3.12-3.12,7.43-5.05,12.2-5.05h160.49c9.53,0,17.25,7.73,17.25,17.25
		C311.985,92.88,310.055,97.2,306.935,100.32z"/>
	<rect x="83.995" y="126" style="fill:#E6E6E6;" width="260.99" height="252.73"/>
	<path style="fill:#666666;" d="M344.985,378.73v19.31c0,17.09-13.85,30.94-30.94,30.94h-199.11c-17.09,0-30.94-13.85-30.94-30.94
		v-19.31H344.985z"/>
	<path style="fill:#666666;" d="M344.985,30.94v19.31H83.995V30.94c0-17.09,13.85-30.94,30.94-30.94h199.11
		C331.135,0,344.985,13.85,344.985,30.94z"/>
	<path style="fill:#4D4D4D;" d="M214.495,415.98c-2.9,0-5.73-1.17-7.78-3.22c-2.05-2.05-3.22-4.88-3.22-7.78s1.17-5.73,3.22-7.78
		c2.05-2.04,4.88-3.22,7.78-3.22c2.89,0,5.729,1.18,7.77,3.22c2.05,2.05,3.23,4.88,3.23,7.78s-1.181,5.73-3.23,7.78
		C220.224,414.81,217.385,415.98,214.495,415.98z"/>
	<rect x="127.496" y="151.494" style="fill:#4D4D4D;" width="80.997" height="15"/>
	<rect x="127.496" y="176.992" style="fill:#4D4D4D;" width="173.992" height="15"/>
	<rect x="127.496" y="227.24" style="fill:#4D4D4D;" width="80.997" height="15"/>
	<rect x="127.496" y="252.739" style="fill:#4D4D4D;" width="173.992" height="15"/>
	<rect x="127.496" y="302.986" style="fill:#4D4D4D;" width="80.997" height="15"/>
	<rect x="127.496" y="328.485" style="fill:#4D4D4D;" width="173.992" height="15"/>
	<path style="fill:#4D4D4D;" d="M243.74,33.333h-58.497c-4.142,0-7.5-3.358-7.5-7.5s3.358-7.5,7.5-7.5h58.497
		c4.143,0,7.5,3.358,7.5,7.5S247.883,33.333,243.74,33.333z"/>
	<g>
		<path style="opacity:0.23;fill:#F2F2F2;enable-background:new    ;" d="M344.985,74.69v323.35c0,17.09-13.85,30.94-30.94,30.94
			h-153.43l18.5-35.54l7.65-14.71L318.285,126L344.985,74.69z"/>
		<path style="opacity:0.23;fill:#F2F2F2;enable-background:new    ;" d="M206.505,0l-21.48,41.59l-4.47,8.66l-10.65,20.62
			l-17.81,34.5L141.445,126l-55.21,106.92l-2.24,4.34V30.94c0-17.09,13.85-30.94,30.94-30.94H206.505z"/>
	</g>
</g>
<g>
</g>
<g>
</g>
<g>
</g>
<g>
</g>
<g>
</g>
<g>
</g>
<g>
</g>
<g>
</g>
<g>
</g>
<g>
</g>
<g>
</g>
<g>
</g>
<g>
</g>
<g>
</g>
<g>
</g>
</svg>
