<?xml version="1.0" encoding="iso-8859-1"?>
<!-- Generator: Adobe Illustrator 19.0.0, SVG Export Plug-In . SVG Version: 6.00 Build 0)  -->
<svg version="1.1" id="Layer_1" xmlns="http://www.w3.org/2000/svg" xmlns:xlink="http://www.w3.org/1999/xlink" x="0px" y="0px"
	 viewBox="0 0 399.76 399.76" style="enable-background:new 0 0 399.76 399.76;" xml:space="preserve">
<g>
	<path style="fill:#AFDAF9;" d="M329.103,129.7c0,2.01-0.05,4.01-0.14,6c-0.34,7.5-1.31,14.82-2.88,21.94
		c-0.24,1.08-0.48,2.15-0.75,3.22c-1.6,6.51-3.7,12.83-6.24,18.9H80.673c-2.55-6.08-4.64-12.39-6.24-18.9
		c-2.01-8.11-3.24-16.53-3.63-25.16c-0.09-1.99-0.14-3.99-0.14-6c0-2.01,0.05-4.01,0.14-6c1.01-22.29,7.65-43.09,18.52-61.06
		c2.17-3.59,4.51-7.07,7.02-10.42c1.2-1.61,2.43-3.18,3.7-4.73s2.59-3.08,3.93-4.57c17.31-19.21,40.28-33.22,66.29-39.41
		c7.46-1.77,15.17-2.9,23.06-3.31c2.02-0.11,4.04-0.17,6.08-0.19h-0.97c0.32-0.01,0.64-0.01,0.97-0.01c0.11,0,0.21,0,0.32,0.01h0.32
		c0.11-0.01,0.21-0.01,0.32-0.01h0.01c0.33,0,0.64,0,0.96,0.01h-0.96c10.02,0.07,19.78,1.28,29.14,3.5
		c26.01,6.19,48.98,20.2,66.28,39.41c1.34,1.49,2.66,3.02,3.93,4.57s2.5,3.12,3.7,4.73c2.51,3.35,4.85,6.83,7.02,10.42
		c10.87,17.97,17.51,38.77,18.52,61.06C329.053,125.69,329.103,127.69,329.103,129.7z"/>
	<rect x="362.38" y="194.261" style="fill:#71B7EA;" width="31" height="15"/>
	<rect x="6.38" y="194.261" style="fill:#71B7EA;" width="31" height="15"/>
	<path style="fill:#97C9E8;" d="M328.963,123.7h-48.73c-0.5-19.2-3.4-38.03-8.48-55.09c11.83-4.41,22.38-9.85,31.42-16.21l0.25-0.18
		c-1.2-1.61-2.43-3.18-3.7-4.73c-1.27-1.55-2.59-3.08-3.93-4.57c-7.99,5.56-17.34,10.35-27.85,14.29
		c-9.24-24.79-22.71-43.32-38.43-53.7c-9.36-2.22-19.12-3.43-29.14-3.5h0.96C201.013,0,200.703,0,200.373,0h-0.01
		c-0.11,0-0.21,0-0.32,0.01h-0.32C199.613,0,199.513,0,199.403,0c-0.33,0-0.65,0-0.97,0.01h0.97c-10.02,0.07-19.78,1.28-29.14,3.5
		c-15.74,10.38-29.21,28.92-38.45,53.7c-10.49-3.94-19.84-8.73-27.84-14.29c-1.34,1.49-2.66,3.02-3.93,4.57s-2.5,3.12-3.7,4.73
		l0.25,0.18c9.03,6.36,19.58,11.8,31.41,16.21c-5.08,17.06-7.97,35.89-8.48,55.09h-48.72c-0.09,1.99-0.14,3.99-0.14,6
		s0.05,4.01,0.14,6h48.72c0.39,15.21,2.24,30,5.55,44.06c0.1,0.47,0.22,0.94,0.33,1.41l1.41,5.83l11.66-2.82l-1.07-4.42l-0.34-1.41
		c-3.29-13.57-5.14-27.89-5.54-42.65h62.85v50.06h12V135.7h61.86c-0.39,14.76-2.25,29.08-5.53,42.65l-0.34,1.41l-1.08,4.42
		l11.67,2.82l1.41-5.83c0.11-0.47,0.23-0.94,0.33-1.41c3.31-14.06,5.15-28.85,5.54-44.06h48.73c0.09-1.99,0.14-3.99,0.14-6
		C329.103,127.69,329.053,125.69,328.963,123.7z M194.373,6.5v62.34c-17.88-0.49-35.34-3.16-51.17-7.82
		C154.873,30.07,173.953,9.84,194.373,6.5z M131.533,123.7c0.49-17.91,3.18-35.42,7.86-51.3c17.03,5.06,35.81,7.95,54.98,8.44v42.86
		H131.533z M206.373,6.67c20.03,3.81,38.7,23.89,50.18,54.35c-15.53,4.57-32.65,7.23-50.18,7.79L206.373,6.67L206.373,6.67z
		 M206.373,123.7V80.81c18.83-0.57,37.26-3.44,53.99-8.41c4.69,15.88,7.37,33.39,7.87,51.3H206.373z"/>
	<rect x="262.883" y="299.76" style="fill:#666666;" width="34" height="32"/>
	<rect x="102.883" y="299.76" style="fill:#666666;" width="34" height="32"/>
	<path style="fill:#71B7EA;" d="M339.313,299.76v40.82c0,11.697-9.483,21.18-21.18,21.18h-76.5c-11.697,0-21.18-9.483-21.18-21.18
		v-40.82h42.43v32h34v-32H339.313z"/>
	<path style="fill:#71B7EA;" d="M179.313,299.76v41.086c0,11.55-9.363,20.914-20.914,20.914H81.366
		c-11.55,0-20.914-9.363-20.914-20.914V299.76h42.43v32h34v-32H179.313z"/>
	<path style="fill:#88C5FC;" d="M369.883,179.76v188.98c0,17.13-13.89,31.02-31.02,31.02H60.903c-17.14,0-31.02-13.89-31.02-31.02
		V179.76h50.79h238.42H369.883z M318.037,361.76c11.75,0,21.276-9.526,21.276-21.276V299.76v-36h-118.86v36v40.724
		c0,11.75,9.526,21.276,21.276,21.276H318.037z M158.037,361.76c11.75,0,21.276-9.526,21.276-21.276V299.76v-36H60.453v36v40.724
		c0,11.75,9.526,21.276,21.276,21.276H158.037z"/>
	<path style="fill:#71B7EA;" d="M70.803,135.7c0.7,15.56,4.15,30.41,9.87,44.06h-50.79V86.39c0-13.12,10.63-23.75,23.75-23.75h35.69
		c-10.87,17.97-17.51,38.77-18.52,61.06c-0.09,1.99-0.14,3.99-0.14,6S70.713,133.71,70.803,135.7z"/>
	<path style="fill:#71B7EA;" d="M369.883,86.391v93.369h-50.79c5.72-13.65,9.17-28.5,9.87-44.06c0.09-1.99,0.14-3.99,0.14-6
		s-0.05-4.01-0.14-6c-1.01-22.29-7.65-43.09-18.52-61.06h35.689C359.249,62.64,369.883,73.274,369.883,86.391z"/>
	<path style="opacity:0.23;fill:#F2F2F2;enable-background:new    ;" d="M329.103,129.7c0,2.01-0.05,4.01-0.14,6
		c-0.34,7.5-1.31,14.82-2.88,21.94c-8.72,2.12-17.83,3.24-27.2,3.24c-63.51,0-115-51.49-115-115c0-16.23,3.36-31.68,9.44-45.68
		c2.02-0.11,4.04-0.17,6.08-0.19h-0.97c0.32-0.01,0.64-0.01,0.97-0.01c0.11,0,0.21,0,0.32,0.01h0.32c0.11-0.01,0.21-0.01,0.32-0.01
		h0.01c0.33,0,0.64,0,0.96,0.01h-0.96c10.02,0.07,19.78,1.28,29.14,3.5c26.01,6.19,48.98,20.2,66.28,39.41
		c1.34,1.49,2.66,3.02,3.93,4.57s2.5,3.12,3.7,4.73c2.51,3.35,4.85,6.83,7.02,10.42c10.87,17.97,17.51,38.77,18.52,61.06
		C329.053,125.69,329.103,127.69,329.103,129.7z"/>
	<path style="opacity:0.24;fill:#808080;enable-background:new    ;" d="M70.803,135.7c0.7,15.56,4.15,30.41,9.87,44.06h-22.5
		c-5.72-13.65-9.17-28.5-9.87-44.06c-0.09-1.99-0.14-3.99-0.14-6c0-2.01,0.05-4.01,0.14-6c1.01-22.29,7.65-43.09,18.52-61.06h22.5
		c-10.87,17.97-17.51,38.77-18.52,61.06c-0.09,1.99-0.14,3.99-0.14,6S70.713,133.71,70.803,135.7z"/>
	<path style="opacity:0.24;fill:#808080;enable-background:new    ;" d="M328.963,135.7c-0.7,15.56-4.15,30.41-9.87,44.06h22.5
		c5.72-13.65,9.17-28.5,9.87-44.06c0.09-1.99,0.14-3.99,0.14-6c0-2.01-0.05-4.01-0.14-6c-1.01-22.29-7.65-43.09-18.52-61.06h-22.5
		c10.87,17.97,17.51,38.77,18.52,61.06c0.09,1.99,0.14,3.99,0.14,6S329.053,133.71,328.963,135.7z"/>
	<path style="opacity:0.24;fill:#808080;enable-background:new    ;" d="M325.333,160.86c-1.6,6.51-3.7,12.83-6.24,18.9H80.673
		c-2.55-6.08-4.64-12.39-6.24-18.9l3.949,0.597c80.31,12.134,161.985,12.168,242.305,0.101L325.333,160.86z"/>
	<polygon style="opacity:0.24;fill:#808080;enable-background:new    ;" points="179.313,275.76 179.313,311.76 136.883,311.76 
		102.883,311.76 60.453,311.76 60.453,275.76 	"/>
	<polygon style="opacity:0.24;fill:#808080;enable-background:new    ;" points="339.313,275.76 339.313,311.76 296.883,311.76 
		262.883,311.76 220.453,311.76 220.453,275.76 	"/>
	<polygon style="fill:#E6E6E6;" points="179.313,263.76 179.313,299.76 136.883,299.76 102.883,299.76 60.453,299.76 60.453,263.76 
			"/>
	<polygon style="fill:#E6E6E6;" points="339.313,263.76 339.313,299.76 296.883,299.76 262.883,299.76 220.453,299.76 
		220.453,263.76 	"/>
	<path style="opacity:0.53;fill:#808080;enable-background:new    ;" d="M339.313,340.58v9.39c0,11.7-9.48,21.18-21.18,21.18h-76.5
		c-11.7,0-21.18-9.48-21.18-21.18v-9.39c0,11.7,9.48,21.18,21.18,21.18h76.5C329.833,361.76,339.313,352.28,339.313,340.58z"/>
	<path style="opacity:0.53;fill:#808080;enable-background:new    ;" d="M179.046,340.58v9.39c0,11.7-9.48,21.18-21.18,21.18h-76.5
		c-11.7,0-21.18-9.48-21.18-21.18v-9.39c0,11.7,9.48,21.18,21.18,21.18h76.5C169.566,361.76,179.046,352.28,179.046,340.58z"/>
</g>
<g>
</g>
<g>
</g>
<g>
</g>
<g>
</g>
<g>
</g>
<g>
</g>
<g>
</g>
<g>
</g>
<g>
</g>
<g>
</g>
<g>
</g>
<g>
</g>
<g>
</g>
<g>
</g>
<g>
</g>
</svg>
